####
#
# OBJ File Generated by Meshlab
#
####
# Object collision.obj
#
# Vertices: 64
# Faces: 120
#
####
vn 1.5959407 2.5635197 1.9579374
v 0.0253215 0.0503435 0.0134193
vn 4.3100028 1.2648913 2.8523092
v 0.0278108 0.0431024 0.0134129
vn 5.2777033 2.3916571 -0.9571161
v 0.0277226 0.0464499 -0.0101642
vn 1.2736971 4.0479774 -1.7961917
v 0.0240697 0.0505130 -0.0124659
vn -0.1551682 5.9714766 0.4755358
v 0.0214093 0.0513040 0.0069810
vn 2.1404176 2.0404394 -3.5112104
v 0.0253143 0.0479612 -0.0145732
vn -2.3782623 1.4407310 -2.3281159
v 0.0087646 0.0453247 -0.0145668
vn -2.2775378 -1.2316337 2.6632648
v 0.0087646 -0.0404765 0.0139656
vn 1.3328340 -1.4433861 5.5496712
v 0.0416263 -0.0318889 0.0145342
vn -3.0965858 -0.1978528 3.1335783
v 0.0087646 -0.0299985 0.0148233
vn 0.5791597 0.2218388 6.1523452
v 0.0289888 0.0098064 0.0168709
vn -3.2500019 0.0200320 3.1378710
v 0.0087646 0.0078620 0.0157583
vn 0.9029949 1.1127981 5.8138685
v 0.0239382 0.0464546 0.0147158
vn -2.5389745 1.3461217 2.5012109
v 0.0087646 0.0449810 0.0142173
vn 1.6297879 -1.0718399 -5.4702296
v 0.0416263 -0.0293653 -0.0149969
vn 3.3361707 0.5894561 -4.5059547
v 0.0429448 -0.0253445 -0.0145509
vn 0.3080745 0.4341713 -6.2172728
v 0.0233060 0.0445596 -0.0150184
vn 0.1587452 -0.0151435 -6.2752876
v 0.0286750 -0.0173595 -0.0156208
vn 2.4175744 0.4860327 5.5623617
v 0.0331965 0.0060117 0.0161207
vn 3.6218529 -0.3701918 2.6623969
v 0.0454881 -0.0303258 0.0133906
vn -3.4750478 3.0656226 -0.4526058
v 0.0087646 0.0485074 -0.0056533
vn -3.4619648 2.9848869 0.7511819
v 0.0087664 0.0482013 0.0080885
vn -3.0942280 0.0488243 -3.1401248
v 0.0087646 0.0249807 -0.0154269
vn -2.1602473 -1.1839929 -2.5991988
v 0.0087646 -0.0369454 -0.0153409
vn 3.3477745 -2.8229158 0.9497256
v 0.0454989 -0.0357966 0.0085866
vn 2.7457774 -4.8867049 -1.0229732
v 0.0416263 -0.0372185 -0.0056533
vn 4.5784464 -0.6772767 -1.9902931
v 0.0454737 -0.0303446 -0.0121138
vn -1.8875070 -2.4528198 1.2897258
v 0.0087646 -0.0435462 0.0113581
vn -2.2452374 -2.9971042 0.0989839
v 0.0087682 -0.0447892 0.0031837
vn 1.6286485 -3.7882259 4.1092100
v 0.0411813 -0.0344360 0.0133276
vn -1.9367033 -2.5536599 -1.1440086
v 0.0087664 -0.0436615 -0.0087705
vn 2.7202203 -2.9198878 -2.6462595
v 0.0435644 -0.0336497 -0.0126204
vn -0.4685765 -1.1152006 -5.8612857
v -0.0240900 -0.0470591 -0.0155295
vn -0.1716076 0.3828844 -6.2559323
v -0.0114529 0.0338194 -0.0151309
vn 3.1008701 -0.0301628 -3.1405716
v 0.0087610 -0.0217766 -0.0156284
vn 2.7557335 -0.9079287 2.8730865
v 0.0087610 -0.0374517 0.0143092
vn -0.4185569 -4.4995637 2.0073371
v -0.0222587 -0.0511271 0.0113835
vn 3.0509994 -2.6815062 1.2972369
v 0.0087610 -0.0441260 0.0085327
vn 0.7811689 -6.1171722 -0.2981970
v -0.0191824 -0.0511885 -0.0035123
vn -1.8737891 -3.4878705 -1.2171369
v -0.0254555 -0.0509306 -0.0124393
vn -2.0598288 -2.2196720 -2.9153876
v -0.0257875 -0.0490243 -0.0148342
vn 2.4045606 -1.4516662 -2.3389666
v 0.0087610 -0.0410652 -0.0146828
vn -1.7224258 0.8516204 -5.4408121
v -0.0417819 0.0312941 -0.0141327
vn -2.2460997 -2.2686803 2.5407937
v -0.0255893 -0.0487787 0.0135528
vn -2.4329245 3.3345602 -2.4875736
v -0.0431742 0.0351263 -0.0120406
vn 1.6595380 1.6697323 -1.8947663
v 0.0087610 0.0453160 -0.0145685
vn 0.0553224 -1.7882447 5.6265769
v -0.0228263 -0.0470591 0.0143054
vn -1.3649926 6.0310979 0.7395782
v -0.0072013 0.0449131 0.0078699
vn 1.9057171 2.5436072 1.1078371
v 0.0087610 0.0476103 0.0116183
vn 2.1355116 2.9113810 -0.4392287
v 0.0087610 0.0485094 -0.0056562
vn 3.5026360 -3.0417831 -0.5143679
v 0.0087610 -0.0445338 -0.0056623
vn 2.9409142 0.2525482 -3.1219311
v 0.0087610 0.0414150 -0.0150629
vn 3.0714738 -0.0114552 3.1404505
v 0.0087610 0.0108952 0.0157755
vn -1.1594545 -0.3772492 6.0238047
v -0.0266174 -0.0318876 0.0148693
vn -5.8580236 -1.5718513 -0.9893249
v -0.0279561 -0.0435610 -0.0125320
vn -4.1936135 0.6383796 -2.1391382
v -0.0456159 0.0315250 -0.0117517
vn -1.3907449 0.7563997 5.6908612
v -0.0417819 0.0312941 0.0150454
vn -4.1533036 -0.1858575 2.6586623
v -0.0455677 0.0300462 0.0132778
vn -3.5091450 2.7050331 0.9852645
v -0.0455891 0.0350968 0.0108581
vn -1.7361534 5.9416428 -0.5297554
v -0.0378837 0.0375828 -0.0064318
vn 3.0315881 0.1796775 3.1329656
v 0.0087610 0.0325567 0.0154317
vn 2.1971059 1.3354127 2.5681663
v 0.0087610 0.0449819 0.0142173
vn -1.9482200 3.2624788 3.3405473
v -0.0433027 0.0351361 0.0133736
vn -5.8952179 -1.8932467 0.4811126
v -0.0275170 -0.0445338 0.0095077
# 64 vertices, 0 vertices normals

f 1//1 2//2 3//3
f 1//1 4//4 5//5
f 4//4 6//6 7//7
f 4//4 1//1 3//3
f 8//8 9//9 10//10
f 11//11 12//12 10//10
f 13//13 14//14 11//11
f 11//11 14//14 12//12
f 15//15 6//6 16//16
f 15//15 17//17 6//6
f 3//3 6//6 4//4
f 15//15 18//18 17//17
f 1//1 13//13 2//2
f 2//2 13//13 19//19
f 19//19 13//13 11//11
f 19//19 9//9 20//20
f 19//19 11//11 9//9
f 21//21 22//22 5//5
f 4//4 7//7 21//21
f 1//1 22//22 14//14
f 17//17 23//23 7//7
f 4//4 21//21 5//5
f 18//18 24//24 23//23
f 18//18 23//23 17//17
f 6//6 17//17 7//7
f 10//10 9//9 11//11
f 1//1 5//5 22//22
f 1//1 14//14 13//13
f 25//25 26//26 27//27
f 28//28 29//29 25//25
f 26//26 25//25 29//29
f 25//25 20//20 30//30
f 28//28 25//25 30//30
f 26//26 31//31 32//32
f 32//32 15//15 27//27
f 32//32 27//27 26//26
f 29//29 12//12 14//14
f 29//29 14//14 22//22
f 29//29 28//28 8//8
f 29//29 8//8 10//10
f 29//29 10//10 12//12
f 29//29 22//22 21//21
f 29//29 31//31 26//26
f 29//29 21//21 7//7
f 29//29 7//7 23//23
f 29//29 24//24 31//31
f 29//29 23//23 24//24
f 15//15 24//24 18//18
f 32//32 24//24 15//15
f 9//9 8//8 30//30
f 15//15 16//16 27//27
f 27//27 20//20 25//25
f 20//20 27//27 3//3
f 20//20 3//3 2//2
f 27//27 16//16 3//3
f 16//16 6//6 3//3
f 20//20 2//2 19//19
f 30//30 20//20 9//9
f 31//31 24//24 32//32
f 30//30 8//8 28//28
f 33//33 34//34 35//35
f 36//36 37//37 38//38
f 37//37 39//39 38//38
f 40//40 39//39 37//37
f 41//41 42//42 40//40
f 41//41 33//33 42//42
f 33//33 43//43 34//34
f 44//44 40//40 37//37
f 45//45 46//46 43//43
f 37//37 36//36 47//47
f 48//48 49//49 50//50
f 40//40 42//42 51//51
f 43//43 52//52 34//34
f 47//47 36//36 53//53
f 43//43 46//46 52//52
f 35//35 34//34 52//52
f 35//35 42//42 33//33
f 54//54 47//47 53//53
f 39//39 51//51 38//38
f 40//40 51//51 39//39
f 41//41 55//55 56//56
f 44//44 57//57 58//58
f 41//41 40//40 55//55
f 59//59 60//60 45//45
f 59//59 45//45 56//56
f 57//57 61//61 62//62
f 59//59 48//48 60//60
f 63//63 49//49 48//48
f 63//63 48//48 59//59
f 58//58 63//63 59//59
f 56//56 43//43 41//41
f 56//56 58//58 59//59
f 56//56 64//64 58//58
f 56//56 55//55 64//64
f 64//64 44//44 58//58
f 58//58 57//57 63//63
f 60//60 48//48 50//50
f 49//49 42//42 35//35
f 49//49 35//35 52//52
f 49//49 52//52 46//46
f 49//49 46//46 50//50
f 54//54 53//53 57//57
f 57//57 53//53 61//61
f 49//49 51//51 42//42
f 49//49 38//38 51//51
f 45//45 50//50 46//46
f 56//56 45//45 43//43
f 43//43 33//33 41//41
f 45//45 60//60 50//50
f 57//57 62//62 63//63
f 49//49 61//61 53//53
f 49//49 53//53 36//36
f 49//49 36//36 38//38
f 49//49 62//62 61//61
f 44//44 37//37 47//47
f 47//47 54//54 44//44
f 44//44 54//54 57//57
f 55//55 40//40 44//44
f 55//55 44//44 64//64
f 62//62 49//49 63//63
# 120 faces, 0 coords texture

# End of File
