####
#
# OBJ File Generated by Meshlab
#
####
# Object collision.obj
#
# Vertices: 8
# Faces: 12
#
####
vn -0.5703546 0.5900283 -0.5714562
v -0.0249407 0.0385672 -0.0172329
vn -0.5845777 -0.5645295 -0.5827310
v -0.0258960 -0.0389759 -0.0179901
vn -0.5700353 0.5787487 0.5831892
v -0.0249263 0.0380589 0.0348020
vn -0.5842583 -0.5758092 0.5719145
v -0.0258816 -0.0394842 0.0340448
vn 0.5842583 0.5758091 -0.5719144
v 0.0261477 0.0379380 -0.0172532
vn 0.5700353 -0.5787487 -0.5831892
v 0.0251924 -0.0396050 -0.0180104
vn 0.5845777 0.5645295 0.5827311
v 0.0261621 0.0374297 0.0347817
vn 0.5703547 -0.5900283 0.5714562
v 0.0252068 -0.0401134 0.0340245
# 8 vertices, 0 vertices normals

f 2//2 4//4 1//1
f 5//5 2//2 1//1
f 1//1 4//4 3//3
f 3//3 5//5 1//1
f 2//2 8//8 4//4
f 6//6 2//2 5//5
f 6//6 8//8 2//2
f 4//4 8//8 3//3
f 7//7 5//5 3//3
f 3//3 8//8 7//7
f 7//7 6//6 5//5
f 8//8 6//6 7//7
# 12 faces, 0 coords texture

# End of File
