####
#
# OBJ File Generated by Meshlab
#
####
# Object collision.obj
#
# Vertices: 96
# Faces: 180
#
####
vn -1.7750257 1.9921557 -4.0023031
v -0.0439623 0.0268627 -0.1066090
vn -4.6434255 1.7319559 -1.5074930
v -0.0543168 0.0244494 -0.0957373
vn -2.9410810 4.2949090 -1.1161356
v -0.0486359 0.0316606 -0.0958553
vn -0.6310504 -5.8188095 -0.9008888
v -0.0342820 -0.0357048 -0.0957373
vn -1.6130697 -2.6947699 -3.1734471
v -0.0426034 -0.0313925 -0.1053280
vn 0.8283230 -5.5748849 -1.3115652
v 0.0169967 -0.0349370 -0.0941656
vn 0.7186890 6.0992498 -0.3631210
v 0.0142582 0.0357192 -0.0894670
vn -0.4826359 3.0491478 2.9379556
v -0.0170556 0.0276129 0.0641051
vn 0.6199008 3.0601258 3.0685878
v 0.0169588 0.0255682 0.0641051
vn 0.9713916 3.1079094 -3.4891071
v 0.0237067 0.0314178 -0.1050245
vn -0.6084585 5.4087734 -1.5739342
v -0.0295844 0.0368317 -0.0957373
vn -2.6742625 -0.7251953 -3.9603729
v -0.0436798 -0.0202259 -0.1077723
vn -1.3510277 -2.9207880 2.5789201
v -0.0231628 -0.0261707 0.0606159
vn -3.5958319 -3.5352948 -0.7999076
v -0.0485667 -0.0313381 -0.0958048
vn -4.3155370 -0.3350074 -2.0338733
v -0.0584495 -0.0061332 -0.0957373
vn 3.8025155 1.8421571 -2.4253387
v 0.0410197 0.0218638 -0.0998710
vn 6.1289454 0.1007428 -0.0568111
v 0.0491964 0.0001304 -0.0126401
vn 3.7252645 -0.4383142 -2.6312647
v 0.0456148 -0.0065264 -0.0989905
vn 2.1272440 -2.5787635 -2.3290920
v 0.0351471 -0.0284237 -0.1016979
vn 2.3057187 -0.2478626 -4.9464684
v 0.0330487 -0.0006523 -0.1079389
vn 4.9190645 -3.1055868 0.0330150
v 0.0455708 -0.0186473 -0.0154137
vn 0.1221196 -2.8631604 3.0836196
v 0.0126009 -0.0262432 0.0641051
vn -2.8139753 -0.4592849 3.2001281
v -0.0357555 -0.0032088 0.0641051
vn -5.2175150 -2.4775031 1.1040289
v -0.0429924 -0.0131941 0.0274524
vn -6.0251083 0.0540354 0.9027798
v -0.0484441 0.0007791 0.0080768
vn -5.3216105 2.6512117 0.9592993
v -0.0449962 0.0155449 0.0095011
vn -2.1000836 2.0474999 2.7706683
v -0.0285932 0.0227860 0.0641051
vn 3.0111105 -0.3769993 2.7030900
v 0.0467578 -0.0063615 0.0641051
vn 1.8165030 -2.1943831 2.3707759
v 0.0407759 -0.0199415 0.0641051
vn 4.5542088 3.2517228 0.2359019
v 0.0454549 0.0187094 0.0044865
vn 2.8032393 4.7495565 -1.0564944
v 0.0329528 0.0314142 -0.0957373
vn 2.1036897 1.7367225 2.2551630
v 0.0430142 0.0163032 0.0641051
vn -5.7587366 0.1020225 1.4039133
v -0.0135986 0.0001307 0.1423110
vn -3.4089782 -1.6813719 2.8600681
v -0.0114356 -0.0070110 0.1461650
vn -3.5064738 1.5381794 2.9680531
v -0.0113685 0.0074881 0.1460840
vn -1.6401683 0.0314920 5.8133631
v -0.0076610 0.0001307 0.1482990
vn -0.1658821 -1.1281687 5.9721718
v 0.0017328 -0.0092633 0.1486975
vn -2.9212074 -0.5510406 -2.3802049
v -0.0144873 -0.0030006 0.1286050
vn -2.1455159 -3.3058736 3.0728557
v -0.0054401 -0.0131399 0.1462170
vn 1.3810070 -0.6558129 5.8901286
v 0.0142584 -0.0061320 0.1479900
vn 3.8029690 -1.2333816 2.7830505
v 0.0205351 -0.0061524 0.1454580
vn 3.8262897 1.2811629 2.8135259
v 0.0204829 0.0062764 0.1451650
vn -0.3038168 -3.5816131 4.2681336
v 0.0017328 -0.0142661 0.1470205
vn 0.1723391 -5.5034833 1.8412576
v 0.0048627 -0.0171689 0.1423110
vn 2.1534510 -3.1203165 2.9860787
v 0.0149384 -0.0129764 0.1460680
vn 3.0037675 0.0725487 -2.3514359
v 0.0235682 0.0001307 0.1286050
vn 2.4677460 1.5459262 -2.2010632
v 0.0212021 0.0097070 0.1286050
vn -2.8502450 1.0338763 -2.5318542
v -0.0134459 0.0061017 0.1286050
vn 1.0945863 1.1095042 5.8179054
v 0.0111265 0.0095248 0.1483380
vn -2.1410456 -2.0594723 -2.3071077
v -0.0090192 -0.0134976 0.1286050
vn -0.7668588 -2.7983034 -2.1399307
v -0.0011215 -0.0184958 0.1286050
vn 2.6617143 -1.2801267 -2.2416391
v 0.0219920 -0.0083379 0.1286050
vn 0.8942298 -2.8550489 -2.3178239
v 0.0112606 -0.0177413 0.1286050
vn 1.9355100 -2.2980323 -2.3346007
v 0.0168089 -0.0146452 0.1286050
vn -0.4491463 2.9620538 -2.3799670
v 0.0016042 0.0184395 0.1286050
vn -1.7451358 2.3917959 -2.3239319
v -0.0072585 0.0149624 0.1286050
vn -1.9063649 5.4590654 1.3751382
v -0.0013972 0.0161444 0.1423110
vn -2.0349240 3.3613091 3.1558337
v -0.0056488 0.0133122 0.1461240
vn 0.2868612 5.6561136 1.6720364
v 0.0048627 0.0171962 0.1423110
vn 1.1455883 2.7179208 -2.2666137
v 0.0118866 0.0173635 0.1286050
vn -4.7832122 3.3716240 0.8940762
v -0.0108059 0.0100136 0.1423110
vn 2.4244666 3.2682576 2.8582921
v 0.0148452 0.0131412 0.1459770
vn -0.4373595 1.0735383 6.0253057
v 0.0017328 0.0095248 0.1485855
vn 0.0525275 3.6369739 4.1815476
v 0.0048627 0.0146725 0.1471070
vn 1.1071944 5.1755657 2.1931992
v 0.0156349 0.0256167 0.1149410
vn 3.5676603 3.2324290 3.0123367
v 0.0308958 0.0167372 0.1153735
vn 2.6505785 5.2645235 0.3744546
v 0.0334511 0.0253883 0.0855993
vn 1.1738725 -5.9212008 0.1153331
v 0.0236561 -0.0287645 0.0859307
vn 1.1183692 -2.8666825 -3.0386832
v 0.0329548 -0.0234568 0.0641114
vn 3.3493359 -4.7614365 0.8032509
v 0.0364652 -0.0236883 0.0879826
vn 0.1811253 -2.9074452 3.5358264
v 0.0080644 -0.0183956 0.1286030
vn 1.6987778 -4.7980905 2.2995441
v 0.0201913 -0.0248127 0.1135960
vn 2.1402943 -0.8233944 4.9683194
v 0.0214813 -0.0056799 0.1286030
vn 4.7044663 3.2399836 0.9321498
v 0.0434155 0.0168439 0.0878437
vn 2.4540968 -1.7086886 -2.5891805
v 0.0432914 -0.0163989 0.0641114
vn 3.7557545 -2.4524608 3.3903480
v 0.0333043 -0.0111506 0.1177917
vn 1.2079338 2.2666273 4.4849658
v 0.0148452 0.0152552 0.1286030
vn 4.6585417 0.4608809 3.0958161
v 0.0392065 0.0013551 0.1138505
vn 0.4796827 6.0590739 -0.2576308
v 0.0166097 0.0291939 0.0827992
vn 0.9484538 2.9472334 -3.2005599
v 0.0299159 0.0238129 0.0641114
vn -0.3720894 -5.8517537 -0.8007228
v 0.0001694 -0.0299630 0.0781020
vn 2.3912847 1.7492720 -2.6102557
v 0.0430145 0.0163040 0.0641114
vn 5.7794113 0.5750858 0.6634868
v 0.0484556 0.0032590 0.0859307
vn 3.0120234 -0.2714888 -2.6007006
v 0.0477445 -0.0030009 0.0641114
vn 5.0190363 -2.3175912 1.0464517
v 0.0459004 -0.0130346 0.0899334
vn -4.3132782 -2.3597562 1.9331744
v -0.0299121 -0.0128625 0.1084380
vn -1.2584059 -2.3627908 4.4280586
v -0.0061339 -0.0149689 0.1286030
vn -2.5105965 0.1384984 4.6808662
v -0.0144404 0.0001291 0.1286030
vn -5.1797471 0.5178167 1.9449620
v -0.0323557 0.0016940 0.1076130
vn -4.1182094 2.9729183 1.9587967
v -0.0268566 0.0162031 0.1085800
vn -2.8989160 0.2001363 -2.2978320
v -0.0352892 0.0007551 0.0641114
vn -1.4741551 2.2166288 -1.9589790
v -0.0232637 0.0261477 0.0641114
vn -1.7560481 -1.9883566 -1.9640605
v -0.0278655 -0.0229318 0.0641114
vn -1.0789957 2.3998234 4.5397515
v -0.0041327 0.0151929 0.1286030
vn -1.6710806 -4.7216110 2.1319075
v -0.0111657 -0.0250856 0.1143220
vn -1.6974640 4.7256107 2.1581893
v -0.0109011 0.0252310 0.1141770
# 96 vertices, 0 vertices normals

f 1//1 2//2 3//3
f 4//4 5//5 6//6
f 7//7 8//8 9//9
f 10//10 11//11 7//7
f 12//12 5//5 2//2
f 12//12 2//2 1//1
f 1//1 3//3 11//11
f 4//4 13//13 14//14
f 4//4 14//14 5//5
f 5//5 14//14 15//15
f 11//11 8//8 7//7
f 2//2 5//5 15//15
f 1//1 11//11 10//10
f 16//16 17//17 18//18
f 19//19 16//16 18//18
f 20//20 16//16 19//19
f 19//19 5//5 20//20
f 18//18 17//17 21//21
f 20//20 1//1 10//10
f 20//20 12//12 1//1
f 4//4 22//22 13//13
f 20//20 5//5 12//12
f 13//13 23//23 24//24
f 25//25 23//23 26//26
f 25//25 24//24 23//23
f 26//26 23//23 27//27
f 2//2 26//26 3//3
f 11//11 3//3 8//8
f 15//15 25//25 2//2
f 15//15 24//24 25//25
f 15//15 14//14 24//24
f 2//2 25//25 26//26
f 26//26 27//27 3//3
f 13//13 24//24 14//14
f 8//8 3//3 27//27
f 28//28 29//29 21//21
f 30//30 17//17 16//16
f 30//30 16//16 31//31
f 32//32 28//28 17//17
f 19//19 29//29 6//6
f 17//17 30//30 32//32
f 29//29 19//19 21//21
f 17//17 28//28 21//21
f 32//32 23//23 13//13
f 32//32 27//27 23//23
f 32//32 29//29 28//28
f 32//32 22//22 29//29
f 32//32 13//13 22//22
f 7//7 9//9 31//31
f 31//31 10//10 7//7
f 16//16 20//20 10//10
f 6//6 22//22 4//4
f 32//32 31//31 9//9
f 6//6 29//29 22//22
f 19//19 6//6 5//5
f 30//30 31//31 32//32
f 32//32 8//8 27//27
f 16//16 10//10 31//31
f 32//32 9//9 8//8
f 19//19 18//18 21//21
f 33//33 34//34 35//35
f 36//36 34//34 37//37
f 36//36 35//35 34//34
f 33//33 38//38 34//34
f 37//37 34//34 39//39
f 40//40 41//41 42//42
f 43//43 44//44 45//45
f 43//43 45//45 40//40
f 42//42 46//46 47//47
f 37//37 39//39 43//43
f 37//37 43//43 40//40
f 33//33 48//48 38//38
f 37//37 40//40 49//49
f 49//49 40//40 42//42
f 42//42 41//41 46//46
f 34//34 50//50 39//39
f 39//39 50//50 51//51
f 41//41 52//52 46//46
f 44//44 51//51 53//53
f 45//45 53//53 54//54
f 45//45 54//54 41//41
f 52//52 41//41 54//54
f 38//38 50//50 34//34
f 45//45 41//41 40//40
f 44//44 53//53 45//45
f 44//44 39//39 51//51
f 43//43 39//39 44//44
f 55//55 38//38 48//48
f 55//55 48//48 56//56
f 57//57 55//55 58//58
f 55//55 56//56 58//58
f 55//55 50//50 38//38
f 55//55 51//51 50//50
f 55//55 57//57 59//59
f 55//55 59//59 60//60
f 55//55 60//60 47//47
f 55//55 47//47 46//46
f 55//55 46//46 52//52
f 55//55 52//52 54//54
f 55//55 54//54 53//53
f 55//55 53//53 51//51
f 58//58 56//56 61//61
f 62//62 47//47 60//60
f 63//63 35//35 36//36
f 35//35 61//61 33//33
f 62//62 42//42 47//47
f 61//61 48//48 33//33
f 63//63 37//37 49//49
f 49//49 42//42 62//62
f 57//57 58//58 59//59
f 63//63 36//36 37//37
f 59//59 58//58 64//64
f 59//59 64//64 62//62
f 60//60 59//59 62//62
f 56//56 48//48 61//61
f 58//58 61//61 35//35
f 64//64 49//49 62//62
f 64//64 63//63 49//49
f 58//58 63//63 64//64
f 58//58 35//35 63//63
f 65//65 66//66 67//67
f 68//68 69//69 70//70
f 71//71 72//72 73//73
f 68//68 70//70 72//72
f 67//67 66//66 74//74
f 69//69 75//75 70//70
f 73//73 72//72 76//76
f 66//66 77//77 78//78
f 79//79 67//67 80//80
f 77//77 66//66 65//65
f 81//81 68//68 72//72
f 65//65 67//67 79//79
f 67//67 74//74 82//82
f 67//67 82//82 80//80
f 78//78 83//83 74//74
f 82//82 83//83 84//84
f 75//75 85//85 70//70
f 78//78 85//85 83//83
f 66//66 78//78 74//74
f 77//77 73//73 78//78
f 76//76 85//85 78//78
f 76//76 78//78 73//73
f 72//72 85//85 76//76
f 82//82 74//74 83//83
f 70//70 85//85 72//72
f 81//81 69//69 68//68
f 86//86 87//87 88//88
f 86//86 88//88 89//89
f 90//90 91//91 89//89
f 90//90 92//92 91//91
f 91//91 93//93 86//86
f 89//89 88//88 90//90
f 90//90 88//88 94//94
f 87//87 71//71 73//73
f 86//86 93//93 95//95
f 90//90 96//96 92//92
f 91//91 80//80 82//82
f 91//91 82//82 84//84
f 91//91 92//92 80//80
f 75//75 83//83 85//85
f 91//91 84//84 75//75
f 89//89 91//91 86//86
f 91//91 75//75 69//69
f 91//91 69//69 93//93
f 96//96 79//79 92//92
f 93//93 81//81 95//95
f 95//95 72//72 87//87
f 94//94 77//77 65//65
f 96//96 65//65 79//79
f 79//79 80//80 92//92
f 81//81 93//93 69//69
f 95//95 81//81 72//72
f 72//72 71//71 87//87
f 94//94 96//96 90//90
f 87//87 73//73 77//77
f 87//87 77//77 94//94
f 87//87 94//94 88//88
f 86//86 95//95 87//87
f 96//96 94//94 65//65
f 83//83 75//75 84//84
# 180 faces, 0 coords texture

# End of File
