####
#
# OBJ File Generated by Meshlab
#
####
# Object collision.obj
#
# Vertices: 64
# Faces: 120
#
####
vn -6.1912103 0.1090470 0.7173496
v -0.0346127 0.0612695 0.0956635
vn -5.3441939 1.8269674 0.7417921
v -0.0338989 0.0772791 0.0983303
vn -3.1369400 0.1101355 -3.0718844
v -0.0356396 0.0345867 0.0236249
vn -2.8730044 -0.9374347 -2.5987248
v -0.0342558 -0.0747754 0.0236249
vn -1.3952774 -2.4523008 -2.2498512
v -0.0294890 -0.0818163 0.0236249
vn -1.9772092 -2.1854076 2.3697023
v -0.0308182 -0.0805835 0.1067370
vn -1.5537050 -5.5798130 0.5743896
v -0.0274170 -0.0831153 0.0983303
vn 0.8016670 -2.8738103 -2.4998219
v 0.0232622 -0.0845549 0.0236249
vn 2.4635639 -1.3976996 -2.3154235
v 0.0303813 -0.0796899 0.0236249
vn 3.0122707 -4.0051956 0.4653046
v 0.0299734 -0.0813116 0.0983303
vn -3.1401634 -0.0283565 -3.0612350
v -0.0361294 -0.0227502 0.0236259
vn 2.2018504 0.7467648 5.2388868
v 0.0276101 0.0739945 0.1070550
vn 2.5395486 3.8774965 1.7445842
v 0.0295073 0.0805059 0.1025500
vn 1.2380807 3.0719426 3.7241917
v 0.0259314 0.0796454 0.1061340
vn -2.1980643 1.5892667 -2.1043932
v -0.0317723 0.0815153 0.0236249
vn -0.6011111 3.0084395 -2.7194855
v -0.0274170 0.0834348 0.0236249
vn 1.3962132 2.3940041 -2.1817591
v 0.0280945 0.0818214 0.0236249
vn 2.9245641 0.8630778 -2.7441335
v 0.0324096 0.0746150 0.0236249
vn 6.2324867 -0.3465796 0.1161722
v 0.0359965 -0.0507650 0.0876545
vn 6.2616444 -0.1002611 -0.1710587
v 0.0375515 0.0105888 0.0823208
vn 6.0556703 0.2753688 0.7286763
v 0.0380066 0.0506047 0.0903255
vn 0.1996886 5.9885950 1.2003837
v -0.0020775 0.0838360 0.0983303
vn -1.7391744 5.4300003 0.6725656
v -0.0274170 0.0835672 0.0983303
vn 4.4956050 1.6336712 1.9845643
v 0.0340665 0.0749625 0.1013530
vn -1.8974794 1.9183263 2.4246562
v -0.0307162 0.0805886 0.1068040
vn 1.7961855 -2.3344164 2.4275281
v 0.0288154 -0.0802856 0.1064940
vn -4.8826380 -2.1133978 0.7007135
v -0.0344961 -0.0774395 0.0983303
vn 0.0353790 0.6646741 6.1888156
v -0.0007392 0.0719509 0.1084370
vn -1.0942489 -0.5715567 5.9330387
v -0.0274170 -0.0747754 0.1082565
vn 1.3111681 -0.2762124 5.9685960
v 0.0259314 -0.0721112 0.1078420
vn -0.0039754 -0.8874634 6.1195288
v -0.0060777 -0.0721112 0.1091650
vn 5.3129663 -0.7746063 1.9012487
v 0.0339427 -0.0694967 0.1010100
vn 0.1947028 -0.4838621 -6.1947007
v 0.0099244 -0.0694385 -0.1096370
vn 1.5595870 -2.3513618 -3.1970434
v 0.0291528 -0.0802977 -0.1072250
vn -0.9173709 -2.9092040 -3.3964264
v -0.0240420 -0.0806359 -0.1075190
vn -0.6270200 -6.1460838 -0.5265066
v -0.0220851 -0.0823111 -0.0990916
vn -3.1794667 -2.9732232 -1.4493145
v -0.0303150 -0.0803802 -0.1028310
vn 3.3898768 -2.5733809 -1.5089872
v 0.0339770 -0.0801656 -0.1019680
vn 0.7849399 -6.0046353 -0.7438156
v 0.0259291 -0.0827896 -0.0990916
vn 0.2665712 -3.0966377 2.8381844
v 0.0205967 -0.0848196 0.0236249
vn -1.3953468 -2.4487576 2.2253621
v -0.0294882 -0.0818077 0.0236249
vn 5.9306269 -0.6151282 -0.9669226
v 0.0379744 -0.0640996 -0.0937567
vn 5.4268904 0.3879414 -1.7887062
v 0.0392790 0.0533460 -0.0963719
vn 6.2625666 -0.1130301 0.2399646
v 0.0392563 -0.0187569 -0.0593935
vn -0.7688418 -0.0042584 -6.1889944
v -0.0194151 0.0119187 -0.1093040
vn 3.0414131 2.0865722 -2.2052031
v 0.0341894 0.0755925 -0.1020990
vn -3.2734942 -0.3901401 -3.7340260
v -0.0299964 -0.0721120 -0.1070290
vn -6.0745602 -0.8414516 -0.6145282
v -0.0330532 -0.0721120 -0.0937567
vn 0.4393457 1.4806935 -5.7763085
v 0.0072544 0.0719453 -0.1091860
vn 1.7201886 -2.2965808 2.3254797
v 0.0278899 -0.0831280 0.0236249
vn -6.2722650 -0.1537933 -0.1377839
v -0.0362684 -0.0272514 -0.0557927
vn -6.2221298 0.2345452 -0.4196163
v -0.0358806 0.0501754 -0.0832993
vn -2.8697231 -0.9250576 2.5710716
v -0.0342555 -0.0747773 0.0236249
vn -3.1405654 0.0301610 3.1171286
v -0.0358863 0.0052472 0.0236249
vn 2.9663086 -0.8113570 2.8313758
v 0.0309126 -0.0774426 0.0236249
vn -2.5097229 1.3411629 2.2689943
v -0.0327460 0.0793965 0.0236249
vn 2.7250352 1.1310796 2.4966269
v 0.0322779 0.0772758 0.0236249
vn -5.8149953 0.9320754 -1.1324008
v -0.0331718 0.0726095 -0.1004255
vn -1.8786485 1.9589003 -2.1819043
v -0.0300950 0.0799659 -0.1070940
vn 1.8306389 0.8005731 -5.7404618
v 0.0277932 0.0692800 -0.1057440
vn 1.3164110 3.9949017 -2.4785962
v 0.0242954 0.0814079 -0.1020844
vn -0.9149998 2.8171766 2.4566860
v -0.0274174 0.0834316 0.0236249
vn 1.2049654 2.6350579 2.3499992
v 0.0280947 0.0818225 0.0236249
vn -0.3973495 5.8605862 -1.1653870
v -0.0167451 0.0837781 -0.0990916
# 64 vertices, 0 vertices normals

f 1//1 2//2 3//3
f 4//4 5//5 6//6
f 6//6 5//5 7//7
f 7//7 5//5 8//8
f 8//8 9//9 10//10
f 1//1 3//3 11//11
f 12//12 13//13 14//14
f 11//11 5//5 4//4
f 11//11 8//8 5//5
f 11//11 9//9 8//8
f 11//11 3//3 15//15
f 11//11 15//15 16//16
f 11//11 16//16 17//17
f 11//11 17//17 18//18
f 11//11 18//18 9//9
f 19//19 20//20 21//21
f 13//13 17//17 22//22
f 22//22 16//16 23//23
f 22//22 17//17 16//16
f 24//24 17//17 13//13
f 9//9 20//20 19//19
f 21//21 20//20 18//18
f 18//18 17//17 24//24
f 23//23 16//16 15//15
f 2//2 15//15 3//3
f 9//9 18//18 20//20
f 13//13 22//22 14//14
f 14//14 22//22 25//25
f 24//24 13//13 12//12
f 25//25 22//22 23//23
f 24//24 21//21 18//18
f 25//25 23//23 15//15
f 2//2 25//25 15//15
f 26//26 7//7 10//10
f 25//25 2//2 27//27
f 27//27 2//2 1//1
f 28//28 25//25 29//29
f 30//30 26//26 12//12
f 12//12 14//14 28//28
f 28//28 14//14 25//25
f 31//31 30//30 12//12
f 29//29 6//6 26//26
f 26//26 30//30 31//31
f 29//29 25//25 6//6
f 31//31 29//29 26//26
f 31//31 28//28 29//29
f 28//28 31//31 12//12
f 25//25 27//27 6//6
f 6//6 7//7 26//26
f 6//6 27//27 4//4
f 27//27 11//11 4//4
f 19//19 32//32 9//9
f 10//10 9//9 32//32
f 27//27 1//1 11//11
f 26//26 10//10 32//32
f 32//32 19//19 21//21
f 7//7 8//8 10//10
f 32//32 21//21 24//24
f 32//32 24//24 26//26
f 26//26 24//24 12//12
f 33//33 34//34 35//35
f 35//35 36//36 37//37
f 34//34 38//38 39//39
f 40//40 41//41 36//36
f 42//42 43//43 44//44
f 38//38 43//43 42//42
f 45//45 33//33 35//35
f 34//34 46//46 38//38
f 47//47 37//37 48//48
f 47//47 35//35 37//37
f 34//34 33//33 49//49
f 40//40 36//36 39//39
f 40//40 39//39 50//50
f 50//50 39//39 38//38
f 48//48 51//51 52//52
f 51//51 53//53 54//54
f 55//55 42//42 44//44
f 53//53 51//51 48//48
f 52//52 51//51 54//54
f 39//39 35//35 34//34
f 35//35 39//39 36//36
f 37//37 41//41 53//53
f 48//48 37//37 53//53
f 36//36 41//41 37//37
f 56//56 52//52 54//54
f 57//57 43//43 46//46
f 57//57 44//44 43//43
f 58//58 59//59 47//47
f 46//46 60//60 61//61
f 57//57 55//55 44//44
f 49//49 61//61 60//60
f 49//49 45//45 59//59
f 62//62 40//40 50//50
f 62//62 50//50 55//55
f 62//62 55//55 57//57
f 62//62 57//57 63//63
f 62//62 63//63 64//64
f 64//64 63//63 61//61
f 64//64 59//59 62//62
f 62//62 41//41 40//40
f 62//62 56//56 54//54
f 62//62 53//53 41//41
f 62//62 54//54 53//53
f 59//59 61//61 49//49
f 56//56 58//58 52//52
f 59//59 58//58 56//56
f 62//62 59//59 56//56
f 64//64 61//61 59//59
f 63//63 46//46 61//61
f 63//63 57//57 46//46
f 45//45 35//35 59//59
f 45//45 49//49 33//33
f 59//59 35//35 47//47
f 38//38 42//42 55//55
f 43//43 38//38 46//46
f 60//60 46//46 34//34
f 49//49 60//60 34//34
f 58//58 48//48 52//52
f 58//58 47//47 48//48
f 50//50 38//38 55//55
# 120 faces, 0 coords texture

# End of File
